<?xml version="1.0" encoding="utf-8"?>
<!-- Generator: Adobe Illustrator 15.0.0, SVG Export Plug-In . SVG Version: 6.00 Build 0)  -->
<!DOCTYPE svg PUBLIC "-//W3C//DTD SVG 1.1//EN" "http://www.w3.org/Graphics/SVG/1.1/DTD/svg11.dtd">
<svg version="1.1" id="Layer_1" xmlns="http://www.w3.org/2000/svg" xmlns:xlink="http://www.w3.org/1999/xlink" x="0px" y="0px"
	 width="300px" height="378px" viewBox="0 0 300 378" enable-background="new 0 0 300 378" xml:space="preserve">
<linearGradient id="SVGID_1_" gradientUnits="userSpaceOnUse" x1="76.5957" y1="-16.7583" x2="212.5957" y2="362.2417">
	<stop  offset="0" style="stop-color:#C9C9C9"/>
	<stop  offset="1" style="stop-color:#A3A3A3"/>
</linearGradient>
<rect x="0.5" fill="url(#SVGID_1_)" width="299.5" height="377"/>
<rect x="12" y="9.5" fill="#2183AD" width="275" height="72"/>
<rect x="12" y="89.5" fill="#2183AD" width="275" height="13"/>
<rect x="12" y="109" fill="#2183AD" width="275" height="13"/>
<rect x="12" y="128" fill="#2183AD" width="275" height="13"/>
<rect x="12" y="296.5" fill="#2183AD" width="275" height="32.5"/>
<rect x="12" y="335" fill="#2183AD" width="135" height="32.5"/>
<rect x="151.5" y="335" fill="#2183AD" width="135" height="32.5"/>
<rect x="12" y="151.5" fill="#2183AD" width="139.5" height="135"/>
<rect x="156.5" y="151.5" fill="#2183AD" width="130.5" height="73.5"/>
<rect x="156.5" y="229.5" fill="#2183AD" width="130.5" height="56.5"/>
<g>
	<path fill="#2CAAE1" stroke="#B4B4B4" stroke-width="9" stroke-miterlimit="10" d="M119.081,18.625
		c-3.532,1.566-7.328,2.625-11.312,3.102c4.066-2.438,7.189-6.297,8.66-10.896c-3.806,2.257-8.021,3.896-12.507,4.779
		c-3.593-3.828-8.711-6.219-14.375-6.219c-10.877,0-19.696,8.818-19.696,19.695c0,1.543,0.174,3.046,0.51,4.488
		c-16.368-0.821-30.88-8.662-40.594-20.578c-1.695,2.909-2.666,6.292-2.666,9.901c0,6.833,3.477,12.862,8.761,16.393
		c-3.229-0.102-6.265-0.988-8.92-2.463c-0.002,0.083-0.002,0.164-0.002,0.248c0,9.542,6.789,17.502,15.799,19.312
		c-1.653,0.45-3.393,0.691-5.189,0.691c-1.269,0-2.503-0.124-3.706-0.354c2.507,7.825,9.78,13.519,18.398,13.678
		c-6.74,5.283-15.232,8.431-24.46,8.431c-1.589,0-3.157-0.093-4.698-0.275c8.716,5.588,19.069,8.849,30.191,8.849
		c36.226,0,56.036-30.011,56.036-56.037c0-0.854-0.02-1.703-0.057-2.548C113.102,26.043,116.441,22.575,119.081,18.625z"/>
	<path fill="#2CAAE1" d="M119.081,18.625c-3.532,1.566-7.328,2.625-11.312,3.102c4.066-2.438,7.189-6.297,8.66-10.896
		c-3.806,2.257-8.021,3.896-12.507,4.779c-3.593-3.828-8.711-6.219-14.375-6.219c-10.877,0-19.696,8.818-19.696,19.695
		c0,1.543,0.174,3.046,0.51,4.488c-16.368-0.821-30.88-8.662-40.594-20.578c-1.695,2.909-2.666,6.292-2.666,9.901
		c0,6.833,3.477,12.862,8.761,16.393c-3.229-0.102-6.265-0.988-8.92-2.463c-0.002,0.083-0.002,0.164-0.002,0.248
		c0,9.542,6.789,17.502,15.799,19.312c-1.653,0.45-3.393,0.691-5.189,0.691c-1.269,0-2.503-0.124-3.706-0.354
		c2.507,7.825,9.78,13.519,18.398,13.678c-6.74,5.283-15.232,8.431-24.46,8.431c-1.589,0-3.157-0.093-4.698-0.275
		c8.716,5.588,19.069,8.849,30.191,8.849c36.226,0,56.036-30.011,56.036-56.037c0-0.854-0.02-1.703-0.057-2.548
		C113.102,26.043,116.441,22.575,119.081,18.625z"/>
</g>
<g>
	<polyline fill="#B4B4B4" points="296.822,284.282 245.652,266.705 194.807,284.599 	"/>
	<polyline fill="#B4B4B4" points="194.807,284.599 202.842,351.214 245.705,374.772 288.791,350.894 296.822,284.282 	"/>
	<polygon fill="#B63133" points="291.752,288.132 245.533,272.371 245.533,369.144 284.266,347.708 	"/>
	<polygon fill="#E23335" points="200.513,288.417 207.397,347.993 245.533,369.144 245.533,272.368 	"/>
	<path fill="#F3F3F3" d="M260.299,329.837h-28.175l-6.304,15.766l-11.724,0.217l31.437-69.935l32.533,69.935h-10.867
		L260.299,329.837z M256.246,320.505l-10.629-22.196l-9.357,22.196H256.246z"/>
	<polygon fill="#B4B4B4" points="245.533,275.885 245.617,298.308 256.234,320.522 245.557,320.522 245.533,329.823 
		260.299,329.837 267.199,345.823 278.418,346.03 	"/>
</g>
</svg>
